# xmcd
#
# Track frame offsets:
#	150
#	13296
#	25901
#	40326
#	53156
#	63350
#	77019
#	89252
#	103923
#	116900
#	134305
#	152385
#	166639
#
# Disc length: 2407 seconds
#
# Revision: 1
# Processed by: cddbd v1.5PL3 Copyright (c) Steve Scherf et al.
# Submitted via: MusicManager 7.0.3.0 
#
DISCID=a109650d
DTITLE=Isaak, Chris  - Forever Blue
DYEAR=1995
DGENRE=Country
TTITLE0=Baby Did A Bad Bad Thing
TTITLE1=Sombody's Crying
TTITLE2=Graduation Day
TTITLE3=Go Walking Down There
TTITLE4=Don't Leave Me On My Own
TTITLE5=Things Go Wrong
TTITLE6=Forever Blue
TTITLE7=There She Goes
TTITLE8=Goin' Nowhere
TTITLE9=Changed Your Mind
TTITLE10=Shadows In A Mirror
TTITLE11=I Believe
TTITLE12=The End Of Everything
EXTD=
EXTT0=
EXTT1=
EXTT2=
EXTT3=
EXTT4=
EXTT5=
EXTT6=
EXTT7=
EXTT8=
EXTT9=
EXTT10=
EXTT11=
EXTT12=
PLAYORDER=
